<?xml version="1.0" standalone="no"?>
<!DOCTYPE svg PUBLIC "-//W3C//DTD SVG 20010904//EN"
 "http://www.w3.org/TR/2001/REC-SVG-20010904/DTD/svg10.dtd">
<svg version="1.0" xmlns="http://www.w3.org/2000/svg"
 width="460.000000pt" height="460.000000pt" viewBox="0 0 460.000000 460.000000"
 preserveAspectRatio="xMidYMid meet">
<metadata>
Created by potrace 1.14, written by Peter Selinger 2001-2017
</metadata>
<g transform="translate(0.000000,460.000000) scale(0.100000,-0.100000)"
fill="#000000" stroke="none">
<path d="M1580 4595 c0 -8 -172 -11 -545 -10 -300 0 -545 -3 -545 -7 0 -5 -7
-8 -15 -8 -57 0 -165 -95 -203 -178 -26 -58 -31 -107 -31 -322 0 -41 -1 -88
-2 -105 0 -16 -1 -36 0 -42 1 -7 1 -20 1 -28 0 -8 0 -23 0 -32 0 -10 0 -34 -1
-53 -1 -19 -1 -41 0 -47 1 -7 1 -20 1 -28 0 -8 0 -22 0 -30 0 -8 0 -21 1 -27
1 -7 1 -40 0 -73 0 -33 -1 -87 -1 -120 0 -33 -2 -73 -3 -90 -1 -16 1 -40 5
-52 4 -12 3 -25 -3 -28 -5 -4 -6 -11 -3 -17 4 -6 7 -32 6 -57 -2 -59 -4 -237
-2 -276 0 -8 0 -22 0 -30 0 -8 0 -23 0 -32 0 -10 0 -34 -1 -53 -1 -19 -1 -41
0 -47 1 -7 1 -20 1 -28 0 -8 0 -22 0 -30 0 -8 0 -21 1 -27 1 -7 1 -40 0 -73 0
-33 -1 -87 -1 -120 0 -33 -2 -73 -3 -90 -1 -16 1 -40 5 -52 4 -12 3 -25 -3
-28 -5 -4 -6 -11 -3 -17 4 -6 7 -32 6 -57 -2 -59 -4 -237 -2 -276 0 -8 0 -22
0 -30 0 -8 0 -23 0 -32 0 -10 0 -34 -1 -53 -1 -19 -1 -41 0 -47 1 -7 1 -20 1
-28 0 -8 0 -22 0 -30 0 -8 0 -21 1 -27 1 -7 1 -40 0 -73 0 -33 -1 -87 -1 -120
0 -33 -2 -73 -3 -90 -1 -16 1 -40 5 -52 4 -12 3 -25 -3 -28 -5 -4 -6 -11 -3
-17 4 -6 7 -32 6 -57 -2 -59 -4 -237 -2 -276 0 -8 0 -22 0 -30 0 -8 0 -23 0
-32 0 -10 0 -34 -1 -53 -1 -19 -1 -41 0 -47 1 -7 1 -20 1 -28 0 -8 0 -22 0
-30 0 -8 0 -21 1 -27 1 -7 0 -40 -1 -73 -3 -135 7 -208 35 -260 15 -28 40 -64
56 -81 16 -17 26 -34 22 -38 -4 -4 -1 -5 7 -1 18 6 73 -38 62 -51 -4 -4 1 -2
11 5 12 10 17 10 17 2 0 -7 5 -9 12 -5 6 4 17 -1 25 -11 7 -11 13 -14 13 -8 0
7 20 11 54 10 30 -1 52 -6 49 -11 -3 -4 5 -5 17 -1 14 5 25 2 30 -6 5 -7 16
-14 24 -15 9 -1 14 2 10 7 -3 5 -10 7 -15 4 -5 -4 -9 -2 -9 3 0 17 13 22 28 9
12 -9 16 -9 19 0 5 13 33 6 33 -9 0 -5 -4 -7 -8 -4 -4 2 -14 0 -22 -5 -11 -7
-9 -8 9 -6 14 2 28 12 32 23 4 10 8 14 8 8 1 -14 51 -49 51 -36 0 5 -10 13
-22 19 -22 10 -22 10 4 15 15 3 25 1 22 -3 -7 -12 3 -11 28 2 11 6 18 7 16 2
-2 -4 7 -19 21 -33 l25 -25 -17 27 c-14 23 -14 27 -1 32 8 3 12 2 9 -4 -3 -5
4 -8 15 -7 11 1 20 4 20 7 0 11 44 4 47 -7 3 -7 -4 -9 -15 -6 -23 5 -38 -12
-21 -23 8 -5 9 -3 4 6 -6 10 -3 12 14 7 15 -4 24 1 33 16 11 20 11 21 18 3 3
-11 16 -21 28 -22 24 -4 38 11 21 22 -7 4 -9 3 -5 -4 4 -7 -1 -10 -14 -9 -25
2 -27 17 -2 18 23 2 24 2 46 -7 11 -4 17 -3 14 2 -7 10 78 10 105 -1 10 -4 17
-3 17 5 0 6 4 9 10 5 5 -3 6 -13 3 -23 -5 -16 -5 -16 8 -1 23 27 57 30 75 6
11 -15 15 -17 11 -5 -4 10 -2 20 3 23 6 4 10 2 10 -3 0 -5 11 -9 25 -9 13 0
23 2 21 6 -2 3 15 6 39 6 24 0 41 -4 37 -9 -3 -5 3 -6 14 -2 22 9 23 9 47 7
24 -1 22 -16 -3 -18 -13 -1 -18 2 -14 9 4 7 2 8 -5 4 -17 -11 -3 -26 21 -22
12 1 25 11 28 22 7 18 7 17 18 -3 9 -15 18 -20 33 -16 17 5 20 3 14 -7 -5 -9
-4 -11 4 -6 17 11 2 29 -20 23 -11 -3 -19 -2 -19 3 0 13 58 18 70 6 7 -7 13
-7 18 -1 8 12 42 12 61 1 8 -5 16 -4 21 4 4 7 13 9 19 6 14 -9 14 -27 0 -23
-6 1 -13 -4 -15 -11 -1 -7 0 -8 3 -2 2 5 9 8 13 5 5 -3 14 5 21 17 12 22 12
22 20 1 8 -21 56 -27 52 -6 -1 6 4 14 13 17 8 3 12 2 9 -4 -8 -12 5 -13 25 0
9 6 19 5 28 -2 10 -9 16 -8 23 3 6 10 9 11 9 1 0 -10 5 -10 21 -1 16 8 20 8
14 -1 -4 -7 -1 -10 11 -8 12 2 23 -6 29 -20 5 -12 14 -22 19 -22 4 0 1 11 -8
25 -21 31 -20 41 1 24 9 -8 17 -14 17 -13 17 14 46 22 51 14 5 -8 11 -8 20 0
9 8 15 8 20 0 3 -6 11 -7 17 -4 6 4 8 2 5 -4 -4 -5 -16 -8 -26 -5 -23 6 -39
-33 -21 -51 10 -8 11 -5 5 14 -7 22 -6 24 9 11 9 -8 14 -21 11 -29 -4 -12 -3
-13 10 -2 13 11 12 14 -8 30 l-22 18 28 -1 c15 -1 25 -6 23 -12 -2 -5 3 -22
10 -37 13 -24 12 -27 -6 -33 -11 -4 -20 -11 -20 -18 0 -8 3 -8 12 1 7 7 18 12
25 12 17 0 17 -27 1 -34 -7 -3 -4 -4 7 -3 13 1 20 -4 19 -15 -1 -10 2 -16 5
-15 4 1 24 -15 44 -35 20 -21 42 -38 48 -38 8 0 7 -6 -2 -17 -12 -16 -12 -17
2 -5 12 9 24 10 43 2 40 -15 141 -12 182 5 20 8 41 12 47 8 5 -3 7 -2 4 4 -4
6 11 19 32 29 22 10 37 22 35 26 -3 5 -1 8 5 8 5 0 11 -3 14 -7 2 -5 3 -3 1 3
-1 7 21 34 50 61 28 27 67 68 86 91 19 24 41 41 49 40 9 -1 22 1 29 5 6 5 12
4 12 -2 0 -10 25 -9 36 2 4 4 14 2 21 -5 11 -9 17 -9 24 3 7 11 9 11 9 0 0
-11 3 -11 15 -1 9 8 15 9 15 2 0 -6 -5 -14 -10 -17 -14 -9 -12 -22 4 -22 7 0
13 7 12 15 0 8 5 17 12 19 8 3 10 -2 6 -14 -4 -14 -2 -13 8 3 13 20 38 22 38
3 0 -6 -4 -8 -9 -4 -15 9 -25 -15 -12 -28 9 -9 10 -7 5 7 -5 14 -4 17 5 12 8
-5 14 0 18 14 6 22 7 22 20 5 11 -16 13 -16 13 -3 0 18 50 32 50 14 0 -6 5 -3
11 7 5 9 14 17 20 17 5 0 27 11 48 24 21 14 42 22 47 18 4 -4 4 -2 1 4 -8 14
17 37 28 26 5 -4 5 -2 2 4 -4 6 4 23 18 38 13 14 22 26 19 26 -3 0 1 10 8 23
6 12 13 28 14 35 1 8 11 20 21 28 15 12 15 13 1 8 -13 -4 -15 -1 -11 15 3 12
10 21 17 22 6 0 2 4 -9 9 -11 5 -15 9 -9 9 6 1 9 17 8 38 -1 21 0 33 3 26 2
-7 12 -9 21 -6 15 6 14 3 -2 -15 -17 -19 -17 -22 -2 -28 9 -3 13 -10 10 -15
-3 -5 0 -9 5 -9 16 0 13 20 -4 26 -8 4 -12 10 -9 16 3 5 13 7 21 4 8 -3 11 -1
8 4 -3 6 3 10 14 10 11 0 23 -5 26 -10 4 -6 11 -8 16 -5 5 4 9 2 9 -3 0 -6 10
-8 22 -4 11 3 19 1 16 -4 -4 -5 10 -10 29 -12 19 -1 47 -9 63 -17 17 -9 32
-15 35 -15 21 1 84 -14 80 -20 -2 -3 6 -6 18 -5 12 1 45 -4 72 -11 28 -7 78
-14 112 -16 35 -2 63 -7 63 -11 0 -4 8 -4 17 2 12 7 21 5 30 -7 12 -16 13 -16
7 1 -4 12 -1 17 12 18 73 3 183 69 199 120 4 11 10 17 14 15 8 -6 10 8 17 106
6 87 -10 161 -53 240 -14 26 -22 52 -18 59 5 7 4 10 -3 6 -9 -6 -59 64 -61 86
0 4 -8 15 -17 24 -34 34 -193 286 -187 296 3 5 2 7 -4 4 -13 -8 -46 61 -37 76
4 7 3 9 -1 4 -11 -10 -35 47 -35 83 0 37 20 91 31 84 5 -3 6 2 3 10 -4 11 0
16 12 16 14 0 15 3 6 8 -10 7 -8 15 8 35 12 14 21 29 21 31 0 15 36 66 46 66
7 0 10 7 6 17 -5 12 -3 14 7 8 9 -6 11 -4 5 4 -4 7 1 22 12 34 10 12 34 45 53
72 19 28 36 52 40 55 3 3 12 18 20 34 8 16 29 43 45 60 17 16 24 26 16 22 -7
-5 -1 12 13 37 56 95 76 164 76 263 0 53 -5 105 -12 121 -40 88 -135 142 -260
148 -43 2 -84 7 -90 11 -7 4 -8 3 -4 -4 5 -8 -2 -12 -21 -12 -16 0 -84 -14
-152 -30 -67 -17 -128 -27 -133 -24 -7 4 -8 2 -4 -4 4 -7 1 -12 -8 -12 -8 0
-35 -7 -58 -14 -24 -8 -54 -17 -68 -20 -14 -3 -41 -10 -60 -15 -52 -16 -62
-14 -58 12 2 12 8 25 13 29 6 5 4 8 -4 8 -11 0 -9 5 5 22 12 14 13 18 3 10 -9
-6 -18 -10 -20 -8 -8 8 3 136 11 131 5 -3 12 -1 15 5 4 6 1 9 -7 8 -7 -2 -13
4 -13 12 0 8 6 14 13 12 8 -1 11 2 7 8 -3 6 -11 8 -16 5 -5 -4 -7 9 -6 27 2
18 -1 42 -6 52 -8 16 -6 18 8 12 14 -5 15 -3 8 6 -6 7 -9 29 -9 48 1 19 -2 41
-7 48 -5 6 -6 12 -1 12 11 0 11 291 0 308 -4 7 -3 12 2 12 5 0 7 52 5 115 -1
68 1 114 7 110 5 -3 12 -1 15 5 4 6 1 9 -7 8 -9 -2 -13 12 -14 53 0 30 -4 61
-8 67 -4 7 -4 17 0 24 10 16 11 189 1 195 -4 2 -4 9 -1 15 7 11 7 110 1 248
-3 45 -11 89 -21 108 -9 18 -14 38 -10 44 4 6 3 8 -4 4 -6 -3 -13 3 -17 13 -7
23 -85 91 -130 113 -16 9 -46 19 -65 23 -19 5 -318 7 -664 7 -492 -1 -632 1
-638 11 -5 8 -8 8 -8 1 0 -17 -170 -18 -170 -1 0 9 -2 9 -8 0 -9 -15 -103 -13
-114 2 -5 7 -8 6 -8 0z m273 -4319 c4 -10 0 -14 -14 -13 -22 1 -25 13 -6 20 6
3 13 6 13 6 1 1 4 -5 7 -13z"/>
<path d="M3455 4100 c-3 -5 -1 -10 4 -10 6 0 11 5 11 10 0 6 -2 10 -4 10 -3 0
-8 -4 -11 -10z"/>
<path d="M3486 2758 c3 -5 10 -6 15 -3 13 9 11 12 -6 12 -8 0 -12 -4 -9 -9z"/>
<path d="M3476 2713 c-6 -14 -5 -15 5 -6 7 7 10 15 7 18 -3 3 -9 -2 -12 -12z"/>
<path d="M3515 2689 c-4 -6 -5 -12 -2 -15 2 -3 7 2 10 11 7 17 1 20 -8 4z"/>
<path d="M3456 2662 c-3 -5 1 -9 9 -9 8 0 12 4 9 9 -3 4 -7 8 -9 8 -2 0 -6 -4
-9 -8z"/>
<path d="M4035 1689 c-4 -6 -5 -12 -2 -15 2 -3 7 2 10 11 7 17 1 20 -8 4z"/>
<path d="M3975 1621 c-3 -5 -2 -12 3 -15 5 -3 9 1 9 9 0 17 -3 19 -12 6z"/>
<path d="M3507 626 c-4 -10 -1 -13 8 -9 8 3 12 9 9 14 -7 12 -11 11 -17 -5z"/>
<path d="M3531 607 c-8 -10 -7 -14 2 -14 8 0 14 6 14 14 0 7 -1 13 -2 13 -2 0
-8 -6 -14 -13z"/>
<path d="M3615 591 c-3 -5 -2 -12 3 -15 5 -3 9 1 9 9 0 17 -3 19 -12 6z"/>
<path d="M3650 579 c0 -5 5 -7 10 -4 6 3 10 8 10 11 0 2 -4 4 -10 4 -5 0 -10
-5 -10 -11z"/>
<path d="M3484 558 l-19 -23 23 19 c12 11 22 21 22 23 0 8 -8 2 -26 -19z"/>
<path d="M3514 549 c-3 -6 -2 -15 3 -20 5 -5 9 -1 9 11 0 23 -2 24 -12 9z"/>
<path d="M3776 542 c-3 -5 1 -9 9 -9 8 0 12 4 9 9 -3 4 -7 8 -9 8 -2 0 -6 -4
-9 -8z"/>
<path d="M3475 520 c3 -5 8 -10 11 -10 2 0 4 5 4 10 0 6 -5 10 -11 10 -5 0 -7
-4 -4 -10z"/>
<path d="M3990 500 c0 -5 5 -10 10 -10 6 0 10 5 10 10 0 6 -4 10 -10 10 -5 0
-10 -4 -10 -10z"/>
<path d="M3520 440 c-9 -6 -10 -10 -3 -10 6 0 15 5 18 10 8 12 4 12 -15 0z"/>
<path d="M3406 378 c3 -5 10 -6 15 -3 13 9 11 12 -6 12 -8 0 -12 -4 -9 -9z"/>
<path d="M3350 360 c0 -5 5 -10 11 -10 5 0 7 5 4 10 -3 6 -8 10 -11 10 -2 0
-4 -4 -4 -10z"/>
<path d="M373 314 c0 -17 2 -22 7 -13 5 6 6 18 3 26 -8 19 -10 16 -10 -13z"/>
<path d="M3276 307 c3 -10 9 -15 12 -12 3 3 0 11 -7 18 -10 9 -11 8 -5 -6z"/>
<path d="M460 280 c-9 -6 -10 -10 -3 -10 6 0 15 5 18 10 8 12 4 12 -15 0z"/>
<path d="M515 269 c-4 -6 -5 -12 -2 -15 2 -3 7 2 10 11 7 17 1 20 -8 4z"/>
<path d="M561 273 c-1 -17 16 -25 25 -12 4 7 3 9 -4 5 -5 -3 -13 0 -15 6 -4 9
-6 10 -6 1z"/>
<path d="M1132 271 c5 -16 44 -25 53 -12 3 5 0 13 -6 17 -8 5 -9 3 -5 -5 10
-15 -25 -11 -37 4 -5 6 -7 4 -5 -4z"/>
<path d="M1429 266 c8 -10 9 -16 1 -21 -5 -3 -10 -11 -10 -18 0 -11 29 22 30
34 0 4 -7 10 -16 13 -14 5 -15 4 -5 -8z"/>
<path d="M2111 273 c4 -20 -2 -27 -12 -13 -9 13 -10 13 -6 -2 3 -9 1 -19 -6
-21 -7 -3 -2 -4 10 -4 12 1 20 3 18 6 -3 2 0 10 6 17 7 8 7 14 -1 19 -6 4 -10
3 -9 -2z"/>
<path d="M2976 267 c3 -8 -2 -14 -11 -14 -8 0 -15 3 -15 6 0 4 -19 7 -42 8
-29 1 -38 -1 -28 -7 10 -7 11 -10 3 -10 -19 0 -57 -41 -60 -65 -2 -16 -1 -17
6 -5 5 8 7 18 5 22 -3 4 2 8 11 8 9 0 14 -4 11 -8 -2 -4 4 -14 15 -20 20 -13
20 -12 3 14 -17 25 -17 27 1 40 21 16 39 19 31 5 -3 -4 2 -17 10 -27 9 -10 13
-13 9 -7 -3 7 -8 22 -10 34 -3 16 -1 19 13 14 9 -4 24 -8 31 -9 8 -2 17 -9 19
-16 3 -8 0 -10 -8 -5 -9 6 -11 4 -5 -5 13 -22 37 18 24 41 -11 22 -21 26 -13
6z"/>
<path d="M535 261 c-6 -11 13 -26 22 -17 4 3 1 6 -6 6 -7 0 -9 5 -6 10 3 6 4
10 1 10 -3 0 -7 -4 -11 -9z"/>
<path d="M630 264 c0 -5 7 -18 15 -28 8 -11 15 -16 15 -10 0 5 -7 18 -15 28
-8 11 -15 16 -15 10z"/>
<path d="M1110 264 c0 -5 7 -18 15 -28 8 -11 15 -16 15 -10 0 5 -7 18 -15 28
-8 11 -15 16 -15 10z"/>
<path d="M1259 266 c-6 -4 -4 -44 2 -40 4 2 6 10 3 17 -3 8 4 13 16 13 12 0
19 -5 16 -13 -3 -7 -1 -15 3 -17 5 -3 8 4 7 16 -1 15 -8 22 -23 23 -13 1 -24
1 -24 1z"/>
<path d="M1390 260 c-12 -7 -10 -9 7 -7 12 0 19 5 17 9 -6 10 -6 10 -24 -2z"/>
<path d="M1670 250 c-9 -16 -8 -18 5 -14 8 3 13 10 10 14 -3 5 1 11 7 13 10 4
10 6 1 6 -7 1 -17 -8 -23 -19z"/>
<path d="M1910 260 c0 -5 5 -10 10 -10 6 0 10 5 10 10 0 6 -4 10 -10 10 -5 0
-10 -4 -10 -10z"/>
<path d="M1959 253 c-16 -9 -17 -12 -4 -7 11 4 28 6 38 6 20 -1 22 4 4 11 -7
3 -24 -2 -38 -10z"/>
<path d="M3220 266 c0 -2 8 -10 18 -17 15 -13 16 -12 3 4 -13 16 -21 21 -21
13z"/>
<path d="M834 231 c0 -16 3 -27 6 -25 7 8 7 54 0 54 -4 0 -7 -13 -6 -29z"/>
<path d="M913 241 c0 -11 5 -18 9 -15 4 3 5 11 1 19 -7 21 -12 19 -10 -4z"/>
<path d="M1639 253 c0 -5 -2 -15 -4 -24 -1 -9 0 -22 4 -28 4 -7 8 4 8 24 0 30
-6 50 -8 28z"/>
<path d="M1714 235 c0 -14 3 -25 7 -25 3 0 7 11 7 25 0 14 -4 25 -7 25 -4 0
-7 -11 -7 -25z"/>
<path d="M2017 247 c-3 -8 1 -14 8 -14 7 0 11 6 8 14 -6 16 -10 16 -16 0z"/>
<path d="M265 240 c-3 -6 1 -7 9 -4 18 7 21 14 7 14 -6 0 -13 -4 -16 -10z"/>
<path d="M593 235 c0 -8 4 -12 9 -9 5 3 6 10 3 15 -9 13 -12 11 -12 -6z"/>
<path d="M748 233 c-4 -13 0 -19 13 -19 14 0 16 3 6 16 -6 8 -12 16 -13 18 -1
1 -4 -5 -6 -15z"/>
<path d="M993 243 c4 -3 3 -11 -3 -17 -6 -8 -3 -12 9 -12 12 0 17 6 13 18 -2
10 -9 18 -15 18 -6 0 -7 -3 -4 -7z"/>
<path d="M1061 241 c-10 -7 -7 -9 12 -8 15 1 27 5 27 10 0 10 -22 9 -39 -2z"/>
<path d="M1190 240 c0 -4 6 -12 13 -18 10 -8 13 -6 13 7 0 10 -6 18 -13 18 -7
0 -13 -4 -13 -7z"/>
<path d="M1460 243 c0 -5 12 -9 27 -10 19 -1 22 1 12 8 -17 11 -39 12 -39 2z"/>
<path d="M1553 243 c4 -3 3 -11 -3 -17 -6 -8 -3 -12 9 -12 12 0 17 6 13 18 -2
10 -9 18 -15 18 -6 0 -7 -3 -4 -7z"/>
<path d="M1793 243 c4 -3 3 -11 -3 -17 -6 -8 -3 -12 9 -12 12 0 17 6 13 18 -2
10 -9 18 -15 18 -6 0 -7 -3 -4 -7z"/>
<path d="M1870 242 c0 -5 7 -9 15 -9 8 0 15 4 15 9 0 4 -7 8 -15 8 -8 0 -15
-4 -15 -8z"/>
<path d="M3125 240 c-3 -6 1 -7 9 -4 18 7 21 14 7 14 -6 0 -13 -4 -16 -10z"/>
<path d="M3190 239 c0 -5 5 -7 10 -4 6 3 10 8 10 11 0 2 -4 4 -10 4 -5 0 -10
-5 -10 -11z"/>
<path d="M513 227 c0 -8 6 -14 14 -14 9 0 10 4 2 14 -6 7 -12 13 -14 13 -1 0
-2 -6 -2 -13z"/>
<path d="M1346 224 c-5 -14 -4 -15 9 -4 17 14 19 20 6 20 -5 0 -12 -7 -15 -16z"/>
<path d="M2930 230 c0 -5 5 -10 11 -10 5 0 7 5 4 10 -3 6 -8 10 -11 10 -2 0
-4 -4 -4 -10z"/>
<path d="M3070 229 c0 -5 -5 -7 -12 -3 -7 4 -8 3 -4 -4 4 -6 13 -9 21 -6 8 4
12 10 9 15 -7 12 -14 11 -14 -2z"/>
<path d="M558 223 c7 -3 16 -2 19 1 4 3 -2 6 -13 5 -11 0 -14 -3 -6 -6z"/>
<path d="M679 213 c-13 -16 -12 -17 4 -4 16 13 21 21 13 21 -2 0 -10 -8 -17
-17z"/>
<path d="M800 220 c-9 -6 -10 -10 -3 -10 6 0 15 5 18 10 8 12 4 12 -15 0z"/>
<path d="M1913 223 c4 -3 1 -13 -6 -22 -11 -14 -10 -14 6 -2 20 15 22 31 5 31
-6 0 -8 -3 -5 -7z"/>
<path d="M1980 226 c0 -2 7 -7 16 -10 8 -3 12 -2 9 4 -6 10 -25 14 -25 6z"/>
<path d="M2882 210 c7 -11 16 -20 20 -20 5 0 3 9 -4 20 -7 11 -16 20 -20 20
-5 0 -3 -9 4 -20z"/>
<path d="M3030 221 c0 -6 4 -13 10 -16 6 -3 7 1 4 9 -7 18 -14 21 -14 7z"/>
<path d="M3150 215 c5 -7 6 -16 2 -21 -4 -5 -3 -5 2 -1 15 12 15 34 0 34 -9 0
-11 -4 -4 -12z"/>
<path d="M3250 220 c0 -5 5 -10 11 -10 5 0 7 5 4 10 -3 6 -8 10 -11 10 -2 0
-4 -4 -4 -10z"/>
<path d="M930 216 c0 -2 8 -10 18 -17 15 -13 16 -12 3 4 -13 16 -21 21 -21 13z"/>
<path d="M1154 209 c-3 -6 -2 -15 3 -20 5 -5 9 -1 9 11 0 23 -2 24 -12 9z"/>
<path d="M2032 206 c7 -8 15 -12 17 -11 5 6 -10 25 -20 25 -5 0 -4 -6 3 -14z"/>
<path d="M2068 213 c7 -3 16 -2 19 1 4 3 -2 6 -13 5 -11 0 -14 -3 -6 -6z"/>
<path d="M594 202 c4 -3 14 -7 22 -8 9 -1 13 0 10 4 -4 3 -14 7 -22 8 -9 1
-13 0 -10 -4z"/>
<path d="M906 202 c-3 -5 1 -9 9 -9 8 0 12 4 9 9 -3 4 -7 8 -9 8 -2 0 -6 -4
-9 -8z"/>
<path d="M1105 199 c-3 -4 2 -6 10 -5 21 3 28 13 10 13 -9 0 -18 -4 -20 -8z"/>
<path d="M1270 205 c0 -7 30 -13 34 -7 3 4 -4 9 -15 9 -10 1 -19 0 -19 -2z"/>
<path d="M1424 202 c4 -3 14 -7 22 -8 9 -1 13 0 10 4 -4 3 -14 7 -22 8 -9 1
-13 0 -10 -4z"/>
<path d="M2185 200 c-3 -5 -1 -10 4 -10 6 0 11 5 11 10 0 6 -2 10 -4 10 -3 0
-8 -4 -11 -10z"/>
<path d="M2940 202 c0 -5 7 -9 15 -9 8 0 12 4 9 9 -3 4 -9 8 -15 8 -5 0 -9 -4
-9 -8z"/>
<path d="M3000 200 c8 -5 20 -10 25 -10 6 0 3 5 -5 10 -8 5 -19 10 -25 10 -5
0 -3 -5 5 -10z"/>
<path d="M3077 191 c-10 -12 -9 -13 3 -6 8 5 21 10 28 11 24 4 25 13 3 11 -12
-1 -28 -8 -34 -16z"/>
<path d="M1953 185 c0 -8 4 -12 9 -9 5 3 6 10 3 15 -9 13 -12 11 -12 -6z"/>
<path d="M695 180 c3 -5 8 -10 11 -10 2 0 4 5 4 10 0 6 -5 10 -11 10 -5 0 -7
-4 -4 -10z"/>
<path d="M2116 173 c-6 -14 -5 -15 5 -6 7 7 10 15 7 18 -3 3 -9 -2 -12 -12z"/>
<path d="M2156 173 c-6 -14 -5 -15 5 -6 7 7 10 15 7 18 -3 3 -9 -2 -12 -12z"/>
<path d="M2913 182 c-9 -6 -7 -11 7 -19 14 -10 19 -9 24 2 3 10 0 12 -11 8
-11 -4 -14 -2 -9 5 8 14 6 15 -11 4z"/>
<path d="M3040 176 c-9 -11 -9 -19 0 -33 11 -17 11 -17 6 1 -4 10 -1 25 5 32
6 8 9 14 6 14 -2 0 -10 -7 -17 -14z"/>
<path d="M2784 168 c-4 -7 -4 -10 1 -6 4 4 14 3 22 -4 11 -8 12 -7 7 6 -7 19
-20 21 -30 4z"/>
<path d="M2840 171 c0 -5 -3 -16 -6 -25 -3 -9 -2 -16 3 -16 5 0 10 11 11 25 1
14 0 25 -3 25 -3 0 -5 -4 -5 -9z"/>
<path d="M2979 168 c15 -21 31 -23 31 -6 0 6 -3 8 -7 5 -3 -4 -13 -1 -22 6
-14 11 -14 10 -2 -5z"/>
<path d="M1040 160 c-9 -6 -10 -10 -3 -10 6 0 15 5 18 10 8 12 4 12 -15 0z"/>
<path d="M1326 158 c3 -5 10 -6 15 -3 13 9 11 12 -6 12 -8 0 -12 -4 -9 -9z"/>
<path d="M1600 160 c-9 -6 -10 -10 -3 -10 6 0 15 5 18 10 8 12 4 12 -15 0z"/>
<path d="M1747 159 c7 -7 15 -10 18 -7 3 3 -2 9 -12 12 -14 6 -15 5 -6 -5z"/>
<path d="M3086 158 c3 -5 10 -6 15 -3 13 9 11 12 -6 12 -8 0 -12 -4 -9 -9z"/>
<path d="M1973 135 c0 -8 4 -12 9 -9 5 3 6 10 3 15 -9 13 -12 11 -12 -6z"/>
<path d="M2775 141 c-3 -5 0 -13 6 -17 7 -4 9 -3 5 4 -3 5 0 13 6 15 9 4 10 6
1 6 -6 1 -14 -3 -18 -8z"/>
<path d="M2895 131 c-3 -5 -2 -12 3 -15 5 -3 9 1 9 9 0 17 -3 19 -12 6z"/>
<path d="M2155 120 c3 -5 8 -10 11 -10 2 0 4 5 4 10 0 6 -5 10 -11 10 -5 0 -7
-4 -4 -10z"/>
<path d="M2745 120 c3 -5 11 -10 16 -10 6 0 7 5 4 10 -3 6 -11 10 -16 10 -6 0
-7 -4 -4 -10z"/>
<path d="M1715 91 c-3 -5 -2 -12 3 -15 5 -3 9 1 9 9 0 17 -3 19 -12 6z"/>
<path d="M2190 77 c0 -2 6 -10 14 -16 11 -9 16 -9 22 1 4 7 4 10 -1 6 -4 -4
-14 -3 -22 3 -7 6 -13 9 -13 6z"/>
</g>
</svg>
